<svg xmlns="http://www.w3.org/2000/svg" width="26.224" height="26.16" viewBox="0 0 26.224 26.16">
    <path id="prefix__address" d="M10.474 23.488v2.656l-.642-.519a43.055 43.055 0 0 1-4.855-4.746C1.674 17.087 0 13.684 0 10.763v-.29a10.474 10.474 0 0 1 20.948 0v.29c0 .245-.013.494-.037.746L18.863 9.64a8.43 8.43 0 0 0-16.82.833v.29c0 4.936 6.359 10.911 8.43 12.725zm6.284-1.468h3.065v-3.065h-3.065zM10.474 6.13a4.343 4.343 0 1 1-4.343 4.343 4.348 4.348 0 0 1 4.343-4.343zm0 2.044a2.3 2.3 0 1 0 2.3 2.3 2.3 2.3 0 0 0-2.3-2.3zm14.372 12.457l-.575-.524v3.281a2.774 2.774 0 0 1-2.771 2.771h-6.47a2.774 2.774 0 0 1-2.771-2.771v-3.281l-.575.524-1.377-1.51 7.958-7.26 7.958 7.26zm-2.618-2.389l-3.962-3.615-3.966 3.616v5.145a.728.728 0 0 0 .727.727H21.5a.728.728 0 0 0 .727-.727zm0 0" transform="translate(0 .001)" style="fill:#acacac"/>
</svg>
