<svg height="180" viewBox="0 0 180 180" width="180" xmlns="http://www.w3.org/2000/svg" xmlns:xlink="http://www.w3.org/1999/xlink"><filter id="a" filterUnits="userSpaceOnUse" height="180" width="180" x="0" y="0"><feOffset dy="3"/><feGaussianBlur result="blur" stdDeviation="7.5"/><feFlood flood-opacity=".161"/><feComposite in2="blur" operator="in"/><feComposite in="SourceGraphic"/></filter><linearGradient id="b" gradientUnits="objectBoundingBox" x1=".333" x2=".851" y1=".056" y2="1.137"><stop offset="0" stop-color="#52b556"/><stop offset="1" stop-color="#77e67c"/></linearGradient><filter id="c" filterUnits="userSpaceOnUse" height="132" width="132" x="23.5" y="24.5"><feOffset dy="3"/><feGaussianBlur result="blur-2" stdDeviation="3"/><feFlood flood-color="#acd9ae" flood-opacity=".31"/><feComposite in2="blur-2" operator="in"/><feComposite in="SourceGraphic"/></filter><g filter="url(#a)"><circle cx="67.5" cy="67.5" fill="#fff" r="67.5" transform="translate(22.5 19.5)"/></g><g filter="url(#c)"><circle cx="57" cy="57" fill="url(#b)" r="57" transform="translate(32.5 30.5)"/></g><path d="m548.491 439.974v-8.146a12.377 12.377 0 0 0 -8.737-11.814 3.787 3.787 0 1 0 -7.234 0 12.376 12.376 0 0 0 -8.737 11.814v8.158l-3.748 6.491a2.581 2.581 0 0 0 2.134 4.032h8.22a5.833 5.833 0 0 0 11.5 0h8.227a.981.981 0 0 0 .145-.01 2.574 2.574 0 0 0 2.086-3.854zm-14.156-21.074a1.8 1.8 0 1 1 3.467.69 12.37 12.37 0 0 0 -1.244-.1h-.014-.174-.041-.193-.193-.043-.174-.015a12.366 12.366 0 0 0 -1.243.1 1.792 1.792 0 0 1 -.133-.69zm1.8 34.469a3.854 3.854 0 0 1 -3.718-2.855h7.436a3.854 3.854 0 0 1 -3.716 2.851z" fill="#fff" transform="translate(-446.186 -347.922)"/></svg>