<svg xmlns="http://www.w3.org/2000/svg" width="91.086" height="81.994" viewBox="0 0 91.086 81.994">
    <defs>
        <style>
            .prefix__cls-1{fill:#fff}
        </style>
    </defs>
    <g id="prefix__ive_arrived_logo_ccolored" transform="translate(-52.309 -33.908)">
        <path id="prefix__Path_60" d="M115.247 165.316l-17.766.965a1.481 1.481 0 0 1-1.562-1.4l-2.4-44.417a1.486 1.486 0 0 1 1.4-1.562l17.766-.965a1.482 1.482 0 0 1 1.562 1.4l2.4 44.417a1.481 1.481 0 0 1-1.4 1.562zM98.8 163.238l14.815-.8-2.25-41.458-14.815.8z" class="prefix__cls-1" data-name="Path 60" transform="translate(-24.707 -50.382)"/>
        <path id="prefix__Path_61" d="M181.08 160.046l-39.24 2.13a1.485 1.485 0 0 1-1.562-1.4l-2.4-44.417a1.482 1.482 0 0 1 1.4-1.562l39.24-2.13a1.481 1.481 0 0 1 1.562 1.4l2.4 44.421a1.486 1.486 0 0 1-1.4 1.562zm-37.914-.913l36.273-1.97-2.25-41.458-36.277 1.974z" class="prefix__cls-1" data-name="Path 61" transform="translate(-51.305 -47.222)"/>
        <path id="prefix__Path_62" d="M64.248 92.1L52.781 81.078a1.482 1.482 0 0 1 .969-2.527l17.029-.925a1.482 1.482 0 0 1 1.1.4l13.73 12.9-4.445.24L70.3 80.621l-13.077.709 11 10.543z" class="prefix__cls-1" data-name="Path 62" transform="translate(-.023 -26.212)"/>
        <path id="prefix__Path_63" d="M221.506 82.5l10.222-12.2a1.485 1.485 0 0 0-1.237-2.4l-17.029.925a1.489 1.489 0 0 0-1.049.525L200.16 83.653l4.445-.24 9.642-11.672 13.077-.709L217.55 82.7z" class="prefix__cls-1" data-name="Path 63" transform="translate(-88.651 -20.379)"/>
        <path id="prefix__Path_64" d="M179.64 181.531a5.881 5.881 0 0 0 11.492-.621" class="prefix__cls-1" data-name="Path 64" transform="translate(-76.347 -88.142)"/>
        <path id="prefix__Path_65" d="M211.175 158.505l-.092-1.738a2.924 2.924 0 1 0 1.83 1.646z" class="prefix__cls-1" data-name="Path 65" transform="translate(-92.999 -73.597)"/>
        <path id="prefix__Path_66" d="M168.044 160.828l-.092-1.738a2.915 2.915 0 1 0 1.83 1.642z" class="prefix__cls-1" data-name="Path 66" transform="translate(-67.082 -74.982)"/>
        <path id="prefix__Path_67" d="M67.044 188.846l-14.014-9.914a1.722 1.722 0 0 1 2-2.8l11.788 8.32z" class="prefix__cls-1" data-name="Path 67" transform="translate(0 -85.083)"/>
        <path id="prefix__Path_68" d="M68.106 211.5l-14.014-9.918a1.714 1.714 0 1 1 2-2.783l11.788 8.316z" class="prefix__cls-1" data-name="Path 68" transform="translate(-.642 -98.673)"/>
        <path id="prefix__Path_69" d="M160.425 43.763a10.6 10.6 0 0 0-3.516-7.548 9.506 9.506 0 0 0-7.247-2.25c-4.869.48-8.449 4.457-8.7 9.67-.144 2.963 1.51 5.9 3.147 8.38.436.661 4.36 5.9 5.978 8.164l1.666 2.1s6.655-10.767 7.239-12.052c1.501-3.389 1.533-4.082 1.433-6.464zm-9.446 4.168a4.1 4.1 0 0 1-.444-8.2 3.972 3.972 0 0 1 1.381.176l.132 2.483 2.483-.136a4.056 4.056 0 0 1-3.552 5.674z" class="prefix__cls-1" data-name="Path 69" transform="translate(-53.148)"/>
    </g>
</svg>
