<svg height="81.994" viewBox="0 0 91.086 81.994" width="91.086" xmlns="http://www.w3.org/2000/svg"><g fill="#fff"><path d="m115.247 165.316-17.766.965a1.481 1.481 0 0 1 -1.562-1.4l-2.4-44.417a1.486 1.486 0 0 1 1.4-1.562l17.766-.965a1.482 1.482 0 0 1 1.562 1.4l2.4 44.417a1.481 1.481 0 0 1 -1.4 1.562zm-16.447-2.078 14.815-.8-2.25-41.458-14.815.8z" transform="translate(-77.016 -84.29)"/><path d="m181.08 160.046-39.24 2.13a1.485 1.485 0 0 1 -1.562-1.4l-2.4-44.417a1.482 1.482 0 0 1 1.4-1.562l39.24-2.13a1.481 1.481 0 0 1 1.562 1.4l2.4 44.421a1.486 1.486 0 0 1 -1.4 1.562zm-37.914-.913 36.273-1.97-2.25-41.458-36.277 1.974z" transform="translate(-103.614 -81.13)"/><path d="m64.248 92.1-11.467-11.022a1.482 1.482 0 0 1 .969-2.527l17.029-.925a1.482 1.482 0 0 1 1.1.4l13.73 12.9-4.445.24-10.864-10.545-13.077.709 11 10.543z" transform="translate(-52.332 -60.12)"/><path d="m221.506 82.5 10.222-12.2a1.485 1.485 0 0 0 -1.237-2.4l-17.029.925a1.489 1.489 0 0 0 -1.049.525l-12.253 14.303 4.445-.24 9.642-11.672 13.077-.709-9.774 11.668z" transform="translate(-140.96 -54.287)"/><path d="m179.64 181.531a5.881 5.881 0 0 0 11.492-.621" transform="translate(-128.656 -122.05)"/><path d="m211.175 158.505-.092-1.738a2.924 2.924 0 1 0 1.83 1.646z" transform="translate(-145.308 -107.505)"/><path d="m168.044 160.828-.092-1.738a2.915 2.915 0 1 0 1.83 1.642z" transform="translate(-119.391 -108.89)"/><path d="m67.044 188.846-14.014-9.914a1.722 1.722 0 0 1 2-2.8l11.788 8.32z" transform="translate(-52.309 -118.991)"/><path d="m68.106 211.5-14.014-9.918a1.714 1.714 0 1 1 2-2.783l11.788 8.316z" transform="translate(-52.951 -132.581)"/><path d="m160.425 43.763a10.6 10.6 0 0 0 -3.516-7.548 9.506 9.506 0 0 0 -7.247-2.25c-4.869.48-8.449 4.457-8.7 9.67-.144 2.963 1.51 5.9 3.147 8.38.436.661 4.36 5.9 5.978 8.164l1.666 2.1s6.655-10.767 7.239-12.052c1.501-3.389 1.533-4.082 1.433-6.464zm-9.446 4.168a4.1 4.1 0 0 1 -.444-8.2 3.972 3.972 0 0 1 1.381.176l.132 2.483 2.483-.136a4.056 4.056 0 0 1 -3.552 5.674z" transform="translate(-105.457 -33.908)"/></g></svg>