<svg height="33.639" viewBox="0 0 23.134 33.639" width="23.134" xmlns="http://www.w3.org/2000/svg"><path d="m164.042 45.593a12.567 12.567 0 0 0 -4.169-8.949 11.271 11.271 0 0 0 -8.593-2.668c-5.773.57-10.018 5.284-10.322 11.466-.171 3.513 1.79 6.993 3.732 9.937.518.783 5.17 6.993 7.088 9.681l1.975 2.488s7.891-12.767 8.584-14.291c1.786-4.018 1.824-4.839 1.705-7.664zm-11.2 4.942a4.866 4.866 0 0 1 -.527-9.719 4.71 4.71 0 0 1 1.638.209l.157 2.944 2.944-.161a4.809 4.809 0 0 1 -4.211 6.728z" fill="#53b557" transform="translate(-140.948 -33.908)"/></svg>