<svg height="72.589" viewBox="0 0 49.92 72.589" width="49.92" xmlns="http://www.w3.org/2000/svg"><path d="m190.782 59.123a27.118 27.118 0 0 0 -9-19.312 24.322 24.322 0 0 0 -18.544-5.758c-12.458 1.229-21.617 11.4-22.273 24.742-.369 7.581 3.862 15.091 8.053 21.443 1.117 1.69 11.157 15.091 15.3 20.89l4.262 5.368s17.028-27.549 18.52-30.837c3.856-8.668 3.938-10.44 3.682-16.536z" fill="#53b557" transform="translate(-140.948 -33.908)"/><g fill="#fff" stroke="#fff"><path d="m100.375 132.891-5.608.3a.468.468 0 0 1 -.493-.442l-.758-14.021a.469.469 0 0 1 .442-.493l5.608-.3a.468.468 0 0 1 .493.442l.758 14.021a.468.468 0 0 1 -.442.493zm-5.191-.656 4.677-.253-.711-13.082-4.677.253z" transform="translate(-76.513 -92.409)"/><path d="m151.513 127.621-12.387.672a.469.469 0 0 1 -.493-.442l-.758-14.021a.468.468 0 0 1 .441-.493l12.387-.672a.468.468 0 0 1 .493.441l.758 14.022a.469.469 0 0 1 -.441.493zm-11.968-.288 11.45-.622-.71-13.087-11.451.623z" transform="translate(-115.266 -87.805)"/><path d="m56.1 82.2-3.62-3.481a.468.468 0 0 1 .306-.8l5.376-.292a.468.468 0 0 1 .348.126l4.334 4.071-1.4.076-3.429-3.33-4.128.224 3.472 3.328z" transform="translate(-41.549 -59.194)"/><path d="m206.9 72.507 3.227-3.852a.469.469 0 0 0 -.391-.758l-5.376.292a.47.47 0 0 0 -.331.166l-3.869 4.515 1.4-.076 3.044-3.684 4.128-.224-3.085 3.683z" transform="translate(-169.679 -50.695)"/><path d="m179.64 181.106a1.856 1.856 0 0 0 3.628-.2" transform="translate(-151.753 -147.425)"/><path d="m208.6 157.237-.029-.549a.923.923 0 1 0 .578.519z" transform="translate(-176.014 -126.233)"/><path d="m165.4 159.551-.029-.549a.92.92 0 1 0 .578.518z" transform="translate(-138.252 -128.252)"/><path d="m56.96 179.924-4.424-3.129a.544.544 0 0 1 .632-.885l3.721 2.626z" transform="translate(-42.515 -144.969)"/><path d="m58.028 202.585-4.428-3.131a.541.541 0 1 1 .632-.878l3.721 2.625z" transform="translate(-43.45 -163.769)"/></g></svg>