<svg height="57.171" viewBox="0 0 64.585 57.171" width="64.585" xmlns="http://www.w3.org/2000/svg" xmlns:xlink="http://www.w3.org/1999/xlink"><filter id="a" filterUnits="userSpaceOnUse" height="49" width="40.247" x="5.025" y="7.764"><feOffset dy="3"/><feGaussianBlur result="blur" stdDeviation="5"/><feFlood flood-color="#98ff9d" flood-opacity=".349"/><feComposite in2="blur" operator="in"/><feComposite in="SourceGraphic"/></filter><filter id="b" filterUnits="userSpaceOnUse" height="49.84" width="48.136" x="11.552" y="7.331"><feOffset dy="3"/><feGaussianBlur result="blur-2" stdDeviation="5"/><feFlood flood-color="#98ff9d" flood-opacity=".349"/><feComposite in2="blur-2" operator="in"/><feComposite in="SourceGraphic"/></filter><filter id="c" filterUnits="userSpaceOnUse" height="36.825" width="43.872" x="0" y=".317"><feOffset dy="3"/><feGaussianBlur result="blur-3" stdDeviation="5"/><feFlood flood-color="#98ff9d" flood-opacity=".349"/><feComposite in2="blur-3" operator="in"/><feComposite in="SourceGraphic"/></filter><filter id="d" filterUnits="userSpaceOnUse" height="37.304" width="43.353" x="21.232" y="0"><feOffset dy="3"/><feGaussianBlur result="blur-4" stdDeviation="5"/><feFlood flood-color="#98ff9d" flood-opacity=".349"/><feComposite in2="blur-4" operator="in"/><feComposite in="SourceGraphic"/></filter><g filter="url(#a)" transform="matrix(1.001246328 .0024044835 -.0024044835 1.001246328 .001171477 -.0022197935)"><path d="m101.488 135.318-6.518.354a.544.544 0 0 1 -.573-.514l-.881-16.3a.545.545 0 0 1 .514-.573l6.518-.354a.544.544 0 0 1 .573.514l.881 16.3a.544.544 0 0 1 -.514.573zm-6.033-.762 5.435-.294-.826-15.21-5.435.294z" fill="#47ae4c" stroke="#47ae4c" stroke-width=".8" transform="matrix(.99862953 .05233596 -.05233596 .99862953 -65.84 -102.48)"/></g><g filter="url(#b)" transform="matrix(1.001246328 .0024044835 -.0024044835 1.001246328 .001171477 -.0022197935)"><path d="m153.726 130.048-14.4.782a.545.545 0 0 1 -.573-.514l-.881-16.3a.544.544 0 0 1 .513-.573l14.4-.782a.544.544 0 0 1 .573.513l.881 16.3a.545.545 0 0 1 -.513.574zm-13.91-.335 13.308-.723-.826-15.21-13.309.724z" fill="#47ae4c" stroke="#47ae4c" stroke-width=".8" transform="matrix(.99862953 .05233596 -.05233596 .99862953 -103.87 -99.97)"/></g><g filter="url(#c)" transform="matrix(1.001246328 .0024044835 -.0024044835 1.001246328 .001171477 -.0022197935)"><path d="m56.714 82.937-4.207-4.046a.544.544 0 0 1 .356-.927l6.248-.339a.543.543 0 0 1 .4.147l5.04 4.728-1.631.088-3.985-3.868-4.8.26 4.035 3.868z" fill="#47ae4c" stroke="#47ae4c" stroke-width=".8" transform="matrix(.99862953 .05233596 -.05233596 .99862953 -32.5 -67.52)"/></g><g filter="url(#d)" transform="matrix(1.001246328 .0024044835 -.0024044835 1.001246328 .001171477 -.0022197935)"><path d="m207.991 73.256 3.75-4.478a.545.545 0 0 0 -.454-.881l-6.248.339a.546.546 0 0 0 -.385.192l-4.5 5.249 1.631-.088 3.537-4.282 4.8-.26-3.586 4.281z" fill="#47ae4c" stroke="#47ae4c" stroke-width=".8" transform="matrix(.99862953 .05233596 -.05233596 .99862953 -158.86 -65.83)"/></g></svg>