<svg height="27.171" viewBox="0 0 34.585 27.171" width="34.585" xmlns="http://www.w3.org/2000/svg"><g fill="#d3d3d3" stroke="#d3d3d3" stroke-width=".8"><path d="m101.488 135.318-6.518.354a.544.544 0 0 1 -.573-.514l-.881-16.3a.545.545 0 0 1 .514-.573l6.518-.354a.544.544 0 0 1 .573.514l.881 16.3a.544.544 0 0 1 -.514.573zm-6.033-.762 5.435-.294-.826-15.21-5.435.294z" transform="matrix(.99862953 .05233596 -.05233596 .99862953 -80.83865786165 -114.4824556568)"/><path d="m153.726 130.048-14.4.782a.545.545 0 0 1 -.573-.514l-.881-16.3a.544.544 0 0 1 .513-.573l14.4-.782a.544.544 0 0 1 .573.513l.881 16.3a.545.545 0 0 1 -.513.574zm-13.91-.335 13.308-.723-.826-15.21-13.309.724z" transform="matrix(.99862953 .05233596 -.05233596 .99862953 -118.86504530564 -111.97416565373)"/><path d="m56.714 82.937-4.207-4.046a.544.544 0 0 1 .356-.927l6.248-.339a.543.543 0 0 1 .4.147l5.04 4.728-1.631.088-3.985-3.868-4.8.26 4.035 3.868z" transform="matrix(.99862953 .05233596 -.05233596 .99862953 -47.50382352674 -79.51892893793)"/><path d="m207.991 73.256 3.75-4.478a.545.545 0 0 0 -.454-.881l-6.248.339a.546.546 0 0 0 -.385.192l-4.5 5.249 1.631-.088 3.537-4.282 4.8-.26-3.586 4.281z" transform="matrix(.99862953 .05233596 -.05233596 .99862953 -173.86334613272 -77.83076235254)"/></g></svg>