<svg height="15.723" viewBox="0 0 13.758 15.723" width="13.758" xmlns="http://www.w3.org/2000/svg"><g fill="#acd9ae"><path d="m45.144 11.117a.614.614 0 0 0 .614-.614v-2.273a2.46 2.46 0 0 0 -2.458-2.457h-.738v-2.166a3.686 3.686 0 0 0 -7.37 0v2.166h-.736a2.46 2.46 0 0 0 -2.456 2.457v5.036a2.46 2.46 0 0 0 2.457 2.457h8.843a2.46 2.46 0 0 0 2.457-2.457.614.614 0 1 0 -1.228 0 1.23 1.23 0 0 1 -1.229 1.229h-8.843a1.23 1.23 0 0 1 -1.228-1.228v-5.037a1.23 1.23 0 0 1 1.228-1.23h8.843a1.23 1.23 0 0 1 1.229 1.23v2.27a.614.614 0 0 0 .615.617zm-3.81-5.344h-4.913v-2.166a2.458 2.458 0 0 1 4.913 0z" transform="translate(-32)"/><circle cx="7" cy="10.723" r="1"/><circle cx="4" cy="10.723" r="1"/><circle cx="10" cy="10.723" r="1"/></g></svg>