<svg xmlns="http://www.w3.org/2000/svg" width="36.11" height="28.158" viewBox="0 0 36.11 28.158">
    <defs>
        <style>
            .prefix__cls-1{fill:#0871b8;stroke:#0871b8;stroke-width:.5px}
        </style>
    </defs>
    <g id="prefix__courier" transform="translate(-16.48 -19.29)">
        <path id="prefix__Path_247" d="M31.683 43.169C30.855 45.738 29.2 47.147 27 47.2c-2.341.054-3.944-1.243-5.026-4.069h-2.393c-1.947 0-2.846-.9-2.851-2.9V22.386c0-1.927.912-2.842 2.813-2.846h14.738a2.474 2.474 0 0 1 2.685 2.714v3.567c0 .054.041.1.1.236H42.9a4.292 4.292 0 0 1 3.447 1.508q2.382 2.71 4.8 5.386a4.487 4.487 0 0 1 1.189 3.174v4.089c0 2.03-.887 2.9-2.9 2.9h-.729c-.758 2.523-2.316 4.077-5.042 4.048-2.2 0-3.646-1.3-4.686-4.007zm3.551-1.686a1.969 1.969 0 0 0 .083-.327V22.27c0-.829-.435-1.09-1.214-1.086H19.626c-1.077 0-1.264.182-1.268 1.268v17.755c0 1.081.174 1.243 1.272 1.243h2.358c.1-.282.166-.53.261-.771a4.76 4.76 0 0 1 3.729-3.174A4.84 4.84 0 0 1 31.5 40.82c.087.249.348.6.547.617 1.045.079 2.11.046 3.187.046zm1.794-13.752V41.4c1.74.224 1.74.224 2.432-1.185a4.86 4.86 0 0 1 4.624-2.784 4.732 4.732 0 0 1 4.326 3.319c.265.949.874.733 1.467.717.675-.025.829-.489.829-1.081 0-1.479.07-2.962-.037-4.429a3.5 3.5 0 0 0-.738-1.864q-2.353-2.822-4.914-5.5a2.664 2.664 0 0 0-1.632-.829c-2.098-.091-4.169-.033-6.357-.033zm-6.961 14.622a3.228 3.228 0 1 0-6.451-.079 3.315 3.315 0 0 0 3.24 3.286 3.244 3.244 0 0 0 3.211-3.207zm16.988-.046a3.207 3.207 0 0 0-3.282-3.224 3.24 3.24 0 1 0 3.265 3.224z" class="prefix__cls-1" data-name="Path 247"/>
        <path id="prefix__Path_252" d="M73.664 49.236c-1.059 0-2.122-.028-3.18 0-.725.024-1.037-.291-1.034-1.055V44.05c0-.677.272-1.036.914-1.012h.076c3.115-.106 3.119-.11 5.229 2.363.653.784 1.324 1.54 1.929 2.327a1.3 1.3 0 0 1 .25 1.008A1.092 1.092 0 0 1 77 49.2c-1.113.067-2.223.032-3.336.036zm1.886-1.626A16.37 16.37 0 0 1 74 45.72c-.776-1.3-1.868-1.24-3.075-1.04v2.93z" class="prefix__cls-1" data-name="Path 252" transform="translate(-30.278 -13.417)"/>
    </g>
</svg>
