<svg xmlns="http://www.w3.org/2000/svg" viewBox="0 0 407.07 204.78"><defs><style>.cls-1{fill:#4e4d4d;}.cls-2{fill:#f39322;}</style></defs><g id="Réteg_2" data-name="Réteg 2"><g id="Réteg_1" data-name="Réteg 1"><path class="cls-1" d="M95.48,202.36l-44.37,2.41a3.7,3.7,0,0,1-3.9-3.49h0l-6-110.93a3.72,3.72,0,0,1,3.5-3.9L89.08,84A3.7,3.7,0,0,1,93,87.52h0l6,110.93a3.7,3.7,0,0,1-3.49,3.9Zm-41.07-5.19,37-2L85.79,91.63l-37,2Z"/><path class="cls-1" d="M193.47,197.09l-98,5.32a3.71,3.71,0,0,1-3.9-3.5L85.57,88a3.71,3.71,0,0,1,3.49-3.9h0l98-5.32a3.7,3.7,0,0,1,3.9,3.49h0l6,110.94A3.71,3.71,0,0,1,193.47,197.09Zm-94.69-2.28,90.59-4.92L183.75,86.35l-90.6,4.93Z"/><path class="cls-1" d="M29.76,79.88,1.12,52.34A3.7,3.7,0,0,1,3.54,46l42.53-2.31a3.72,3.72,0,0,1,2.75,1L83.11,76.93l-11.1.6L44.88,51.2,12.22,53,39.69,79.3Z"/><path class="cls-1" d="M201.16,70.47,226.69,40a3.71,3.71,0,0,0-3.09-6L181.07,36.3a3.76,3.76,0,0,0-2.62,1.31l-30.6,35.73,11.1-.6L183,43.59l32.66-1.77L191.28,71Z"/><path class="cls-1" d="M127.33,148.55s2.68,11.53,15,10.86S156,147,156,147"/><path class="cls-1" d="M164.5,127.37l-.23-4.34a7.16,7.16,0,1,0,4.87,8.88,7.24,7.24,0,0,0,.27-2.41,6.92,6.92,0,0,0-.57-2.36Z"/><path class="cls-1" d="M121.51,129.71l-.23-4.34a7.28,7.28,0,1,0,4.57,4.1Z"/><path class="cls-2" d="M36.8,174.46,1.8,149.7a4.3,4.3,0,0,1,5-7l29.44,20.78Z"/><path class="cls-2" d="M37.85,197.09l-35-24.77a4.28,4.28,0,0,1,5-6.95l29.44,20.77Z"/><path class="cls-2" d="M137.28,24.61A26.43,26.43,0,0,0,128.5,5.76,23.76,23.76,0,0,0,110.4.14C98.24,1.34,89.3,11.27,88.66,24.29c-.36,7.4,3.77,14.73,7.86,20.93,1.09,1.65,10.89,14.73,14.93,20.39l4.16,5.24S132.23,44,133.69,40.75C137.45,32.29,137.53,30.56,137.28,24.61ZM113.69,35a10.25,10.25,0,0,1-1.11-20.47h0A9.81,9.81,0,0,1,116,15l.33,6.2,6.2-.34A10.12,10.12,0,0,1,113.69,35Z"/><path class="cls-1" d="M220.42,141.64v-40.1h7.49v40.1Z"/><path class="cls-1" d="M233.86,115.09l5.6-14.7h8.15l-7.68,14.7Z"/><path class="cls-1" d="M257.48,111.48v4.76a8.83,8.83,0,0,1,8.51-5.15q6.61,0,8.57,5.71a9.07,9.07,0,0,1,3.57-4.22,10,10,0,0,1,5.41-1.49,9.06,9.06,0,0,1,7.09,2.77q2.49,2.76,2.49,7.88v19.87h-7.2v-18.5c0-4-1.54-6.07-4.64-6.07a5.48,5.48,0,0,0-4.13,2c-1.21,1.35-1.82,3.48-1.82,6.37v16.18h-7.2v-18.5c0-4-1.54-6.07-4.64-6.07a5.54,5.54,0,0,0-4.16,2c-1.23,1.35-1.85,3.48-1.85,6.37v16.18h-7.14V111.48Z"/><path class="cls-2" d="M225.35,171.65a10.08,10.08,0,0,0,2.59,6.9,8.77,8.77,0,0,0,6.7,2.62,12.37,12.37,0,0,0,6.84-2v6.19a15.21,15.21,0,0,1-7.85,1.84A14.92,14.92,0,0,1,218,173c0-.43,0-.87,0-1.31a15.86,15.86,0,0,1,4.31-11.13Q226.61,156,234,156a15.72,15.72,0,0,1,7.5,1.67V164a12.35,12.35,0,0,0-6.79-1.91,9,9,0,0,0-6.73,2.62A9.8,9.8,0,0,0,225.35,171.65Z"/><path class="cls-2" d="M260.52,187.09q-6.84,0-10.68-4.28A15.83,15.83,0,0,1,246,171.86a16.56,16.56,0,0,1,4-11.4A13.43,13.43,0,0,1,260.53,156q7,0,10.77,4.38a16.22,16.22,0,0,1,3.81,11.09,16.52,16.52,0,0,1-3.84,11.25Q267.41,187.1,260.52,187.09Zm0-25.29a5.9,5.9,0,0,0-5.21,2.8,12.67,12.67,0,0,0-1.81,7,12.31,12.31,0,0,0,1.84,7,6.4,6.4,0,0,0,8.88,1.7,6.59,6.59,0,0,0,1.65-1.64,12.47,12.47,0,0,0,1.79-7,13.3,13.3,0,0,0-1.73-7.11,5.93,5.93,0,0,0-5.41-2.72Z"/><path class="cls-2" d="M288.36,156.48v4.76a8.83,8.83,0,0,1,8.51-5.12q6.6,0,8.57,5.71a9.07,9.07,0,0,1,3.57-4.22,10,10,0,0,1,5.41-1.49,9.06,9.06,0,0,1,7.09,2.77q2.49,2.76,2.49,7.88v19.87h-7.2v-18.5c0-4-1.54-6.07-4.64-6.07a5.48,5.48,0,0,0-4.13,2c-1.21,1.35-1.82,3.48-1.82,6.37v16.18H299v-18.5c0-4.05-1.54-6.07-4.64-6.07a5.54,5.54,0,0,0-4.16,2c-1.23,1.35-1.85,3.48-1.85,6.37V186.6h-7.14V156.48Z"/><path class="cls-2" d="M331,147.43a4.16,4.16,0,0,1,1.24-3,4.32,4.32,0,0,1,6.07,0,4.09,4.09,0,0,1,1.25,3,4.19,4.19,0,0,1-1.25,3.1,4.3,4.3,0,0,1-6.07,0A4.23,4.23,0,0,1,331,147.43Zm.71,39.21V156.48h7.14v30.16Z"/><path class="cls-2" d="M354,156.48v5.17q2.56-5.52,9.28-5.53a9.41,9.41,0,0,1,7.14,2.74c1.75,1.82,2.63,4.4,2.62,7.73v20h-7.14V168.09a6.32,6.32,0,0,0-1.43-4.49,5.06,5.06,0,0,0-3.86-1.52,6,6,0,0,0-4.7,2.17,9.13,9.13,0,0,0-1.91,6.22v16.18h-7.14V156.48Z"/><path class="cls-2" d="M399.93,156.48h7.14v27.43q0,7.14-4.14,10.74a15.39,15.39,0,0,1-10.5,3.6A23.82,23.82,0,0,1,382,196.09v-7.26a16.32,16.32,0,0,0,9.69,2.85q8.22,0,8.22-7.85v-2.62q-2.74,4.47-8.57,4.46A11.61,11.61,0,0,1,382.7,182q-3.6-3.69-3.6-10.8a16.72,16.72,0,0,1,3.42-10.79,11,11,0,0,1,9-4.26,9.08,9.08,0,0,1,8.39,4.7Zm-6.85,23.38a6.16,6.16,0,0,0,4.88-2.29,8.88,8.88,0,0,0,2-6q0-4.8-1.91-7.08a6,6,0,0,0-4.82-2.26,5.74,5.74,0,0,0-4.88,2.41,10.74,10.74,0,0,0-1.78,6.51c0,2.82.61,5,1.84,6.46a5.84,5.84,0,0,0,4.67,2.25Z"/></g></g></svg>