<svg xmlns="http://www.w3.org/2000/svg" viewBox="0 0 424.15 204.78"><defs><style>.cls-1{fill:#4e4d4d;}.cls-2{fill:#0871b8;}</style></defs><g id="Réteg_2" data-name="Réteg 2"><g id="Réteg_1" data-name="Réteg 1"><path class="cls-1" d="M95.48,202.36l-44.37,2.41a3.7,3.7,0,0,1-3.9-3.49h0l-6-110.93a3.72,3.72,0,0,1,3.5-3.9L89.08,84A3.7,3.7,0,0,1,93,87.52h0l6,110.93a3.7,3.7,0,0,1-3.49,3.9Zm-41.07-5.19,37-2L85.79,91.63l-37,2Z"/><path class="cls-1" d="M193.47,197.09l-98,5.32a3.71,3.71,0,0,1-3.9-3.5L85.57,88a3.71,3.71,0,0,1,3.49-3.9h0l98-5.32a3.7,3.7,0,0,1,3.9,3.49h0l6,110.94A3.71,3.71,0,0,1,193.47,197.09Zm-94.69-2.28,90.59-4.92L183.75,86.35l-90.6,4.93Z"/><path class="cls-1" d="M29.76,79.88,1.12,52.34A3.7,3.7,0,0,1,3.54,46l42.53-2.31a3.72,3.72,0,0,1,2.75,1L83.11,76.93l-11.1.6L44.88,51.2,12.22,53,39.69,79.3Z"/><path class="cls-1" d="M201.16,70.47,226.69,40a3.71,3.71,0,0,0-3.09-6L181.07,36.3a3.76,3.76,0,0,0-2.62,1.31l-30.6,35.73,11.1-.6L183,43.59l32.66-1.77L191.28,71Z"/><path class="cls-1" d="M127.33,148.55s2.68,11.53,15,10.86S156,147,156,147"/><path class="cls-1" d="M164.5,127.37l-.23-4.34a7.16,7.16,0,1,0,4.87,8.88,7.24,7.24,0,0,0,.27-2.41,6.92,6.92,0,0,0-.57-2.36Z"/><path class="cls-1" d="M121.51,129.71l-.23-4.34a7.28,7.28,0,1,0,4.57,4.1Z"/><path class="cls-2" d="M36.8,174.46,1.8,149.7a4.3,4.3,0,0,1,5-7l29.44,20.78Z"/><path class="cls-2" d="M37.85,197.09l-35-24.77a4.28,4.28,0,0,1,5-6.95l29.44,20.77Z"/><path class="cls-2" d="M137.28,24.61A26.43,26.43,0,0,0,128.5,5.76,23.76,23.76,0,0,0,110.4.14C98.24,1.34,89.3,11.27,88.66,24.29c-.36,7.4,3.77,14.73,7.86,20.93,1.09,1.65,10.89,14.73,14.93,20.39l4.16,5.24S132.23,44,133.69,40.75C137.45,32.29,137.53,30.56,137.28,24.61ZM113.69,35a10.25,10.25,0,0,1-1.11-20.47A9.81,9.81,0,0,1,116,15l.33,6.2,6.2-.34A10.12,10.12,0,0,1,113.69,35Z"/><path class="cls-1" d="M221.69,138.53V98.09h7.56v40.44Z"/><path class="cls-1" d="M235.27,111.71l5.64-14.82h8.22l-7.74,14.82Z"/><path class="cls-1" d="M259.09,108.09v4.8a8.89,8.89,0,0,1,8.58-5.16q6.66,0,8.64,5.76a9.23,9.23,0,0,1,3.6-4.26,10.12,10.12,0,0,1,5.46-1.5,9.13,9.13,0,0,1,7.14,2.79q2.52,2.79,2.52,8v20h-7.26V119.87q0-6.12-4.68-6.12a5.48,5.48,0,0,0-4.17,2q-1.83,2-1.83,6.42v16.32h-7.26V119.87q0-6.12-4.68-6.12a5.63,5.63,0,0,0-4.2,2q-1.86,2-1.86,6.42v16.32h-7.2v-30.4Z"/><path class="cls-2" d="M239.11,154.09v6.36a14.43,14.43,0,0,0-7.5-1.8,4.7,4.7,0,0,0-2.91.81,2.51,2.51,0,0,0-1,2.07,2.74,2.74,0,0,0,.15.9,2.14,2.14,0,0,0,.54.81q.39.39.75.69a5.25,5.25,0,0,0,1,.63l1.14.57q.48.24,1.32.6t1.32.6a18.25,18.25,0,0,1,5,3.48,6.86,6.86,0,0,1,1.86,5,8,8,0,0,1-3.06,6.66,12.86,12.86,0,0,1-8.16,2.4,19.28,19.28,0,0,1-9.12-1.86v-6.6a15.27,15.27,0,0,0,8.7,2.7,5.48,5.48,0,0,0,3.09-.75,2.37,2.37,0,0,0,1.11-2.07,2.79,2.79,0,0,0-.36-1.41,3.72,3.72,0,0,0-1.38-1.23q-1-.6-1.59-.87l-2.25-1a1.59,1.59,0,0,1-.27-.12,1.11,1.11,0,0,0-.27-.12l-.3-.12q-6.66-3-6.66-8.64a7.82,7.82,0,0,1,3.18-6.6,12.93,12.93,0,0,1,8-2.4A19.5,19.5,0,0,1,239.11,154.09Z"/><path class="cls-2" d="M269.77,175.61v6.24c-2.12,1.34-5.18,2-9.18,2q-7.26,0-11.46-4.32a15.33,15.33,0,0,1-4.2-11.16q0-7.26,4-11.4a13.17,13.17,0,0,1,9.9-4.14q5.94,0,9.42,3.6t3.48,10.5a28.34,28.34,0,0,1-.42,4.32H252.19a8.17,8.17,0,0,0,3.27,5,10.6,10.6,0,0,0,6.21,1.74A13.36,13.36,0,0,0,269.77,175.61Zm-4.92-9.78v-.9a7.65,7.65,0,0,0-1.59-4.71,5.29,5.29,0,0,0-4.29-1.77,6.13,6.13,0,0,0-4.47,1.89,9.56,9.56,0,0,0-2.43,5.49Z"/><path class="cls-2" d="M285.49,153.09v5.22q2.58-5.58,9.36-5.58a9.48,9.48,0,0,1,7.2,2.76q2.64,2.76,2.64,7.8v20.22h-7.2v-18.7a6.37,6.37,0,0,0-1.44-4.53,5.12,5.12,0,0,0-3.9-1.53,6.07,6.07,0,0,0-4.74,2.19,9.22,9.22,0,0,0-1.92,6.27v16.32h-7.2V153.09Z"/><path class="cls-2" d="M332.83,141.09H340v42.42h-7.2v-4.72a10.11,10.11,0,0,1-9.24,5.16,11.37,11.37,0,0,1-9.51-4.56,17.54,17.54,0,0,1-3.51-11q0-7.2,3.69-11.43a12,12,0,0,1,9.45-4.23,10.14,10.14,0,0,1,9.12,5.1Zm-7.56,36.66a6.83,6.83,0,0,0,5.4-2.49q2.16-2.49,2.16-7.23t-2.28-6.93a7.13,7.13,0,0,0-5.22-2.31,6.61,6.61,0,0,0-5.25,2.55,10.8,10.8,0,0,0-2.13,7.11,10.28,10.28,0,0,0,2.1,6.72,6.47,6.47,0,0,0,5.22,2.6Z"/><path class="cls-2" d="M347.41,144a4.32,4.32,0,1,1,8.64,0h0a4.24,4.24,0,0,1-1.26,3.12,4.35,4.35,0,0,1-6.12,0A4.24,4.24,0,0,1,347.41,144Zm.72,39.54V153.09h7.2v30.42Z"/><path class="cls-2" d="M370.63,153.09v5.22q2.58-5.58,9.36-5.58a9.48,9.48,0,0,1,7.2,2.76q2.64,2.76,2.64,7.8v20.22h-7.2v-18.7a6.37,6.37,0,0,0-1.44-4.53,5.12,5.12,0,0,0-3.9-1.53,6.07,6.07,0,0,0-4.74,2.19,9.22,9.22,0,0,0-1.92,6.27v16.32h-7.2V153.09Z"/><path class="cls-2" d="M417,153.09h7.2v27.66q0,7.2-4.17,10.83a15.5,15.5,0,0,1-10.59,3.63,24,24,0,0,1-10.5-2.16v-7.32a16.48,16.48,0,0,0,9.78,2.88q8.28,0,8.28-7.92v-2.6q-2.76,4.5-8.64,4.5a11.7,11.7,0,0,1-8.73-3.75Q396,175.09,396,168a16.89,16.89,0,0,1,3.45-10.89,11.1,11.1,0,0,1,9.09-4.29,9.13,9.13,0,0,1,8.46,4.74Zm-6.9,23.58a6.18,6.18,0,0,0,4.92-2.31,8.9,8.9,0,0,0,2-6q0-4.86-1.92-7.14a6.1,6.1,0,0,0-4.86-2.28,5.81,5.81,0,0,0-4.92,2.43,10.87,10.87,0,0,0-1.8,6.57q0,4.26,1.86,6.51a5.86,5.86,0,0,0,4.72,2.24Z"/></g></g></svg>