<svg xmlns="http://www.w3.org/2000/svg" width="27.532" height="34.456" viewBox="0 0 27.532 34.456">
    <g id="prefix__shopping-bag" transform="translate(.503 .5)">
        <g id="prefix__Group_45" data-name="Group 45">
            <g id="prefix__Group_44" data-name="Group 44">
                <path id="prefix__Path_236" d="M79.531 27.589L78.037 8.763A2.353 2.353 0 0 0 75.7 6.6h-2.949v-.133a6.467 6.467 0 1 0-12.934 0V6.6h-2.951a2.352 2.352 0 0 0-2.336 2.16l-1.494 18.832a5.448 5.448 0 0 0 5.432 5.864H74.1a5.448 5.448 0 0 0 5.431-5.867zM61.776 6.467a4.507 4.507 0 1 1 9.015 0V6.6h-9.015zm14.882 23.912A3.452 3.452 0 0 1 74.1 31.5H58.467a3.488 3.488 0 0 1-3.478-3.752l1.495-18.835a.384.384 0 0 1 .381-.353h2.951v2.413a.98.98 0 0 0 1.96 0V8.559h9.015v2.413a.98.98 0 1 0 1.96 0V8.559H75.7a.385.385 0 0 1 .382.356l1.494 18.826a3.452 3.452 0 0 1-.918 2.638z" data-name="Path 236" transform="translate(-53.02)" style="fill:#2ba4f6;stroke:#2ba4f6"/>
            </g>
        </g>
        <g id="prefix__Group_47" data-name="Group 47" transform="translate(8.562 16.329)">
            <g id="prefix__Group_46" data-name="Group 46">
                <path id="prefix__Path_237" d="M193.168 250.18a.98.98 0 0 0-1.386 0l-4.375 4.375-1.682-1.682a.98.98 0 0 0-1.386 1.386l2.375 2.375a.98.98 0 0 0 1.386 0l5.068-5.068a.98.98 0 0 0 0-1.386z" data-name="Path 237" transform="translate(-184.052 -249.893)" style="stroke-width:.5px;fill:#2ba4f6;stroke:#2ba4f6"/>
            </g>
        </g>
    </g>
</svg>
